<?xml version="1.0" standalone="no"?>
<!DOCTYPE svg PUBLIC "-//W3C//DTD SVG 20010904//EN"
 "http://www.w3.org/TR/2001/REC-SVG-20010904/DTD/svg10.dtd">
<svg version="1.0" xmlns="http://www.w3.org/2000/svg"
 width="500.000000pt" height="500.000000pt" viewBox="0 0 500.000000 500.000000"
 preserveAspectRatio="xMidYMid meet">
<metadata>
Created by potrace 1.16, written by Peter Selinger 2001-2019
</metadata>
<g transform="translate(0.000000,500.000000) scale(0.100000,-0.100000)"
fill="#000000" stroke="none">
<path d="M2128 4039 c-23 -13 -25 -77 -3 -85 20 -8 19 -58 0 -74 -13 -11 -18
-11 -28 0 -10 10 -8 12 6 7 12 -4 20 -1 24 10 4 9 1 19 -5 21 -7 2 -10 7 -7
12 7 11 -20 61 -28 53 -4 -3 -7 -19 -7 -35 0 -15 -4 -28 -10 -28 -5 0 -10 7
-10 15 0 8 -4 15 -9 15 -14 0 -19 -31 -9 -57 5 -15 4 -23 -4 -23 -11 0 -2 -14
10 -16 4 0 14 -4 22 -7 27 -11 169 -13 167 -2 -1 6 3 9 9 8 5 -1 11 16 12 38
3 41 -10 51 -27 22 -10 -17 -10 -17 -11 0 0 9 -4 25 -9 35 -6 9 -12 29 -16 45
-3 15 -12 27 -20 27 -22 0 -18 -30 6 -56 11 -12 21 -36 21 -52 1 -18 5 -29 11
-25 6 3 7 1 3 -5 -13 -21 -25 -13 -41 24 -18 44 -18 47 -2 38 6 -4 1 3 -11 16
-18 17 -23 31 -20 56 2 19 4 34 3 34 0 0 -8 -5 -17 -11z"/>
<path d="M1834 3957 c-3 -9 -10 -15 -14 -12 -9 5 -60 -33 -58 -43 1 -4 -1 -14
-5 -22 -9 -26 -20 -74 -22 -97 0 -12 -5 -26 -9 -30 -5 -4 -5 3 -2 17 7 24 7
25 -10 5 -16 -20 -16 -19 -9 5 4 14 4 22 0 18 -5 -4 -13 -1 -19 8 -11 14 -15
13 -36 -6 -14 -12 -18 -19 -10 -15 10 4 9 2 -2 -8 -22 -17 -24 -53 -4 -60 15
-6 11 -47 -4 -47 -10 0 -25 -40 -21 -55 1 -5 -1 -7 -5 -3 -4 4 -13 3 -20 -3
-8 -7 -14 -7 -19 1 -6 10 -5 11 18 14 6 1 11 7 10 14 -2 7 1 12 6 12 5 0 7 9
4 20 -6 22 -33 28 -33 8 -1 -7 -6 -3 -13 10 -7 12 -17 19 -21 15 -5 -4 -7 -1
-4 7 3 8 -2 21 -11 28 -12 11 -13 12 -1 6 8 -4 4 4 -9 18 -22 23 -25 24 -41 9
-9 -9 -15 -18 -14 -20 2 -2 -6 -12 -17 -24 -27 -29 -24 -55 11 -85 34 -30 40
-71 14 -96 -8 -9 -12 -16 -7 -16 14 0 -21 -20 -36 -20 -11 0 -11 3 -1 15 9 11
10 18 1 28 -6 8 -8 17 -4 21 4 3 -2 13 -13 22 -10 8 -13 13 -6 9 19 -10 14 2
-14 32 -18 19 -28 24 -31 15 -3 -7 -12 -20 -21 -29 -11 -11 -17 -32 -16 -63 0
-39 6 -51 34 -78 18 -18 28 -32 21 -32 -6 0 -11 -4 -11 -10 0 -5 7 -10 16 -10
10 0 14 -7 12 -22 -2 -13 -9 -22 -16 -20 -6 1 -12 -5 -12 -13 0 -8 5 -15 11
-15 8 0 8 -5 -1 -15 -7 -8 -18 -15 -24 -14 -7 0 -6 2 1 6 14 5 7 49 -11 69 -8
9 -14 7 -22 -7 -9 -17 -10 -15 -11 16 -1 19 3 32 8 29 5 -3 6 2 3 10 -3 8 -14
18 -25 21 -10 4 -19 12 -19 18 0 14 -39 41 -47 33 -10 -9 -10 -130 0 -143 5
-7 5 -19 -1 -29 -7 -12 -4 -22 10 -36 10 -10 22 -16 27 -14 15 10 39 -29 43
-70 2 -30 0 -40 -9 -37 -7 3 -10 9 -7 14 3 5 0 9 -5 9 -6 0 -11 7 -11 15 0 22
-40 41 -51 24 -5 -8 -9 -10 -9 -6 0 13 -30 -20 -30 -33 0 -14 -39 6 -60 32
-13 16 -20 18 -43 9 -27 -10 -40 -51 -16 -51 8 0 8 -4 0 -14 -9 -11 -6 -21 15
-45 14 -17 30 -29 34 -26 12 7 41 -6 35 -15 -3 -5 4 -11 14 -15 17 -5 18 -10
11 -30 -5 -14 -7 -33 -4 -42 4 -14 3 -15 -4 -5 -7 11 -10 11 -15 -2 -4 -9 -2
-16 4 -16 6 0 7 -5 3 -12 -5 -8 -11 -5 -17 10 -18 41 -46 24 -52 -31 -4 -37
-5 -38 -15 -32 -5 3 -10 -1 -10 -10 0 -9 5 -13 10 -10 6 3 10 -4 10 -17 0 -18
-2 -20 -10 -8 -5 8 -10 10 -10 5 0 -6 12 -28 27 -50 17 -25 22 -40 15 -43 -7
-2 -12 -10 -12 -17 0 -19 -34 -24 -55 -9 -10 7 -22 11 -28 7 -6 -3 -7 -2 -4 4
4 5 -3 19 -13 31 -25 27 -25 28 5 58 14 14 25 35 24 47 -1 21 -1 20 -9 -3 l-8
-25 -1 25 c-2 36 -12 45 -49 45 -23 0 -39 -8 -58 -30 -14 -16 -23 -23 -19 -15
4 8 0 6 -9 -4 -8 -10 -13 -23 -10 -27 3 -5 1 -9 -4 -9 -5 0 -14 -12 -20 -27
-13 -37 -14 -113 -1 -113 6 0 8 -4 4 -9 -3 -5 -1 -12 5 -16 6 -4 8 -11 5 -16
-4 -5 1 -9 9 -9 9 0 13 -6 10 -14 -3 -9 3 -17 15 -21 12 -3 21 -13 21 -20 0
-8 12 -17 28 -21 15 -3 32 -7 38 -9 18 -5 29 -106 13 -115 -9 -6 -9 -12 4 -25
10 -9 17 -22 17 -28 0 -8 -3 -7 -9 2 -7 11 -12 9 -22 -10 -7 -13 -12 -31 -11
-39 7 -45 14 -60 25 -57 8 1 13 -18 15 -61 2 -49 0 -64 -13 -68 -8 -3 -15 -10
-15 -16 0 -5 5 -6 12 -2 7 4 8 3 4 -5 -4 -6 -12 -9 -17 -6 -5 4 -9 1 -9 -6 0
-7 -3 -10 -6 -7 -7 8 -42 -25 -37 -34 2 -5 -1 -8 -6 -8 -17 0 -13 -47 5 -64 8
-9 22 -16 30 -16 8 0 13 -4 10 -9 -3 -4 13 -5 37 0 23 4 60 8 82 7 l40 -1 -40
-7 -40 -7 43 -2 c24 0 41 -5 37 -10 -3 -6 1 -13 8 -18 7 -4 17 -16 20 -26 4
-10 11 -16 16 -13 5 3 12 -1 15 -10 4 -9 9 -14 12 -11 3 3 14 -3 25 -14 11
-11 25 -17 31 -13 7 4 8 3 4 -4 -4 -7 -2 -12 4 -12 11 0 59 -49 60 -62 0 -3
-9 -4 -20 -1 -11 3 -20 11 -20 18 0 17 -63 32 -68 17 -2 -6 -10 -8 -18 -5 -8
3 -14 0 -14 -6 0 -6 -6 -11 -13 -11 -7 0 -18 -5 -24 -11 -13 -13 48 -82 75
-84 10 0 23 -4 29 -8 6 -4 14 -3 18 3 4 6 11 8 16 5 5 -4 9 -2 9 3 0 13 31 8
65 -11 17 -9 28 -16 25 -17 -3 0 -20 -4 -38 -9 -18 -6 -30 -6 -27 -1 6 10 -23
22 -36 14 -5 -3 -9 -12 -9 -20 0 -8 -7 -17 -16 -21 -13 -5 -13 -7 -2 -14 10
-7 9 -9 -4 -9 -23 0 -27 -21 -7 -41 11 -11 26 -15 43 -12 21 4 26 1 26 -13 0
-11 -8 -24 -19 -31 -24 -15 -34 -53 -15 -60 8 -3 14 -12 14 -20 0 -8 4 -12 9
-9 5 4 11 1 13 -6 4 -10 14 -13 66 -20 6 -1 12 -5 12 -9 0 -4 19 -5 43 -3 38
3 39 2 12 -6 -23 -7 -16 -8 31 -4 50 4 63 2 68 -11 3 -9 12 -13 18 -10 7 4 5
0 -5 -8 -16 -13 -16 -18 -5 -36 15 -25 26 -27 35 -5 3 9 12 13 22 9 9 -4 35
-8 57 -10 33 -3 50 -12 82 -44 41 -41 41 -42 -8 -45 -22 -2 -41 -46 -29 -68 6
-10 14 -16 20 -13 5 4 9 2 9 -3 0 -12 90 -6 103 7 6 6 16 11 22 11 5 0 4 -4
-4 -9 -11 -7 -10 -13 5 -35 27 -37 48 -29 52 19 2 26 6 34 12 25 4 -7 23 -13
42 -13 30 1 31 0 11 -10 -26 -12 -30 -27 -8 -27 8 0 15 -4 15 -9 0 -16 82 -6
95 12 13 18 42 22 61 9 9 -5 8 -11 -2 -20 -12 -10 -14 -10 -14 3 0 8 -8 15
-17 15 -14 0 -15 -2 -4 -9 9 -6 10 -11 2 -15 -6 -4 -11 -20 -11 -35 0 -31 31
-54 65 -48 29 4 91 63 73 70 -9 4 -7 6 5 6 10 1 20 -6 23 -14 4 -8 11 -12 18
-8 13 7 -21 -36 -43 -54 -12 -10 -12 -15 -1 -28 16 -20 64 -45 82 -44 7 0 4 4
-7 9 -19 8 -19 9 2 9 12 1 29 -6 38 -15 15 -15 17 -15 29 1 9 13 19 16 32 10
10 -4 22 -8 26 -7 4 1 5 -5 2 -13 -4 -8 1 -17 10 -21 9 -3 14 -10 11 -14 -7
-12 22 -32 50 -35 13 -2 30 4 37 13 11 13 11 15 -2 8 -8 -4 -6 0 5 9 11 9 19
22 17 30 -1 7 3 17 9 21 7 4 9 3 6 -4 -5 -6 1 -8 14 -5 16 4 17 8 7 14 -10 7
-9 9 5 9 10 0 20 -7 24 -16 3 -9 9 -11 12 -6 3 5 22 13 41 16 26 5 31 4 20 -3
-20 -14 -4 -14 21 0 38 20 59 42 49 53 -4 6 -9 16 -9 21 -1 6 -7 10 -13 10 -7
0 -14 8 -16 19 -2 10 0 16 6 12 6 -3 12 -1 14 6 3 7 17 -2 36 -22 31 -32 82
-50 82 -29 0 5 8 9 18 7 23 -4 30 49 7 58 -8 4 -20 15 -26 25 -8 17 -6 19 18
18 25 0 26 -1 8 -10 -17 -8 -16 -9 7 -6 15 2 29 -1 32 -8 5 -14 86 -17 86 -4
0 5 7 9 15 9 9 0 15 7 13 16 -2 10 3 19 10 21 6 3 12 -4 13 -14 1 -13 3 -11 9
7 7 23 8 23 9 3 2 -35 12 -53 31 -53 35 0 48 71 15 82 -19 6 -19 6 1 7 13 1
28 -9 37 -22 13 -20 23 -24 61 -22 60 2 81 26 60 67 -9 16 -20 25 -28 22 -8
-3 -17 0 -22 7 -5 8 -3 10 7 4 12 -7 12 -6 1 7 -10 13 -10 17 3 22 9 3 13 11
9 17 -4 8 -3 9 5 5 6 -4 14 0 17 8 4 11 19 16 44 16 22 0 45 7 55 16 15 15 17
15 31 -2 9 -11 12 -13 8 -5 -5 10 -3 12 7 5 22 -14 37 -13 43 2 3 8 1 14 -4
14 -5 0 -6 9 -1 22 8 22 61 45 61 27 0 -5 17 -8 38 -8 l37 2 -35 8 c-35 8 -35
8 8 6 23 -2 42 0 42 3 0 3 8 6 18 7 33 3 47 8 60 23 12 13 13 13 6 0 -3 -8 7
0 25 18 31 33 40 49 21 37 -5 -3 -10 2 -10 13 0 10 -10 24 -22 30 l-23 11 25
7 25 8 -25 7 c-24 8 -23 8 5 6 17 -1 36 2 43 6 17 11 15 47 -3 47 -8 0 -17 12
-21 28 -12 53 -14 67 -8 55 9 -21 40 -15 73 13 17 14 31 22 31 18 0 -4 7 1 15
12 19 25 19 54 0 54 -8 0 -15 5 -15 11 0 6 -7 9 -15 5 -8 -3 -15 -1 -15 4 0
26 -91 -6 -110 -38 -9 -16 -9 -16 -10 0 0 9 5 20 10 23 6 4 8 11 4 16 -3 5 -2
9 3 8 16 -4 43 13 43 28 0 8 3 12 8 10 9 -6 71 25 72 36 0 4 2 6 4 5 9 -6 45
35 39 45 -3 6 -1 7 5 3 7 -4 12 -1 12 8 0 9 5 16 11 16 5 0 7 5 4 10 -3 6 -1
10 5 10 6 0 9 4 5 9 -3 6 32 9 85 9 85 -1 92 1 108 23 24 34 24 77 1 90 -11 5
-19 15 -19 21 0 7 -10 23 -22 36 -13 14 -17 22 -11 18 9 -5 11 -2 7 8 -3 9
-11 13 -17 9 -6 -4 -7 -1 -3 6 5 7 -4 29 -19 52 -27 38 -27 40 -10 59 10 11
14 20 9 20 -5 0 -3 4 5 9 10 6 15 29 16 68 2 88 -17 112 -61 77 -10 -8 -13
-12 -5 -8 9 5 12 3 7 -4 -4 -7 -16 -12 -27 -12 -12 0 -17 4 -13 11 3 6 0 16
-7 21 -11 8 -10 8 4 4 26 -9 97 61 76 75 -10 6 -10 9 -1 9 6 0 12 9 12 19 0
11 -6 22 -12 24 -9 4 -9 6 1 6 11 1 10 5 -5 17 -10 8 -12 12 -4 9 8 -4 -7 14
-35 39 -27 25 -53 45 -57 46 -12 0 -10 28 2 35 6 3 7 -1 4 -12 -5 -17 -5 -17
6 0 7 10 9 21 6 24 -3 3 1 12 9 20 17 17 20 49 5 58 -6 4 -8 11 -5 16 4 5 -1
9 -11 9 -11 0 -15 6 -11 20 3 11 1 18 -4 14 -5 -3 -9 0 -9 6 0 7 -7 9 -16 6
-23 -9 -54 11 -47 31 4 10 2 14 -4 10 -6 -4 -10 5 -9 23 1 22 6 30 20 30 10 0
25 8 33 18 9 10 12 11 7 2 -4 -8 5 -4 20 10 14 13 24 30 22 37 -3 7 -1 13 5
13 6 0 8 7 5 16 -3 8 -2 12 4 9 6 -3 10 5 10 20 0 34 -44 53 -70 30 -9 -8 -20
-12 -23 -8 -4 3 -7 -1 -7 -9 0 -9 -7 -18 -15 -22 -8 -3 -15 -16 -16 -28 l0
-23 -10 24 c-5 13 -8 29 -6 35 4 11 -28 46 -43 46 -5 0 -21 -17 -35 -37 -14
-21 -25 -32 -25 -25 0 7 -4 10 -10 7 -5 -3 -10 3 -10 14 0 12 5 21 11 21 6 0
8 9 4 21 -5 15 -4 19 4 15 6 -4 11 -2 11 3 0 6 9 11 20 11 20 0 43 31 38 53
-1 6 6 25 17 41 14 21 16 31 7 34 -6 2 -12 17 -12 33 0 18 4 28 10 24 17 -10
11 4 -10 25 -18 18 -22 19 -35 6 -8 -8 -15 -21 -15 -28 0 -11 -2 -11 -9 0 -6
10 -14 5 -30 -21 -11 -19 -21 -42 -21 -51 0 -9 -8 -16 -20 -16 -14 0 -18 -5
-13 -17 6 -17 6 -17 -10 -1 -17 17 -24 58 -9 58 4 0 15 14 24 31 11 18 13 27
5 23 -6 -4 0 5 16 20 30 30 35 67 11 90 -8 9 -13 16 -10 16 3 0 -1 8 -10 19
-15 17 -18 17 -34 2 -9 -9 -15 -19 -13 -22 1 -4 -4 -9 -12 -13 -8 -3 -12 -12
-9 -20 3 -8 1 -17 -5 -21 -15 -9 -14 -42 1 -47 7 -3 2 -7 -10 -10 -12 -4 -20
-3 -18 1 3 4 -4 15 -16 25 -17 15 -18 20 -7 27 11 7 10 9 -3 9 -10 0 -18 6
-18 13 0 15 20 46 20 32 0 -5 9 5 21 24 16 27 18 36 7 43 -10 8 -10 11 0 15 6
2 12 9 12 14 0 6 -5 7 -12 3 -7 -5 -8 -3 -3 5 4 7 -1 20 -13 31 -11 10 -23 25
-26 32 -5 10 -7 10 -12 0 -3 -7 -13 -20 -22 -29 -18 -17 -19 -20 -22 -68 -1
-16 -4 -24 -7 -17 -2 6 -9 10 -14 6 -5 -3 -9 0 -9 5 0 16 -26 13 -40 -4 -9
-11 -9 -15 -1 -15 7 0 10 -4 7 -9 -3 -4 3 -16 14 -26 11 -10 20 -25 19 -34 0
-12 -3 -10 -9 4 -4 12 -15 27 -24 34 -19 16 -48 71 -36 71 4 0 10 12 13 27 3
19 -1 32 -14 44 -10 9 -19 21 -19 28 0 16 -36 13 -51 -5 -10 -13 -10 -17 1
-24 8 -5 11 -12 8 -16 -9 -9 -43 26 -44 45 -1 9 -2 33 -3 54 0 23 -5 36 -11
32 -5 -3 -11 -1 -11 4 -1 6 -2 15 -3 20 0 5 -5 13 -10 18 -5 5 -6 3 -2 -4 4
-7 2 -13 -3 -13 -6 0 -11 8 -11 17 0 9 -3 13 -7 10 -3 -4 -12 1 -20 11 -10 12
-13 12 -8 2 4 -11 2 -10 -6 2 -12 15 -14 14 -32 -8 -20 -26 -17 -72 6 -86 7
-4 12 -12 12 -18 0 -5 5 -11 10 -12 11 -1 34 -29 35 -40 0 -5 -19 -8 -41 -8
-35 0 -47 6 -75 37 -19 20 -34 33 -34 29 0 -4 -7 0 -16 9 -21 21 -44 3 -44
-35 0 -16 -7 -30 -15 -34 -23 -8 -18 -24 19 -63 l34 -36 46 13 c25 7 44 17 43
23 -4 19 36 20 50 1 7 -10 13 -15 13 -11 0 12 53 -19 74 -42 20 -22 9 -30 -12
-9 -7 7 -12 8 -12 4 0 -5 -8 1 -17 12 -14 15 -26 19 -50 15 -20 -3 -33 -11
-33 -20 0 -8 -5 -11 -12 -8 -7 4 -4 -1 6 -9 11 -9 16 -16 11 -16 -4 0 0 -9 10
-20 10 -11 22 -17 26 -14 5 3 9 0 9 -6 0 -6 5 -8 12 -4 7 4 8 3 4 -4 -5 -8 4
-12 29 -12 22 0 34 4 30 10 -10 16 11 12 25 -5 10 -12 10 -15 -4 -15 -18 0
-22 -15 -6 -25 15 -9 2 -25 -15 -19 -8 4 -13 10 -10 14 5 9 -28 24 -55 25 -8
1 -14 7 -12 14 2 8 -3 11 -13 8 -8 -4 -15 -2 -15 4 0 6 -4 7 -10 4 -5 -3 -10
-2 -10 4 0 6 -10 15 -21 22 -17 9 -20 8 -14 -3 4 -8 1 -7 -7 2 -17 20 -73 55
-64 41 4 -6 2 -11 -3 -11 -6 0 -11 7 -11 16 0 8 -4 12 -10 9 -5 -3 -10 -2 -10
3 0 16 -44 28 -80 22 -28 -4 -40 -1 -60 19 -14 13 -18 21 -10 17 9 -5 8 -2 -3
7 -9 8 -28 12 -42 9 -15 -2 -25 0 -25 7 0 6 -11 11 -25 11 -14 0 -25 -4 -25
-10 0 -5 -7 -10 -16 -10 -9 0 -12 5 -8 11 5 9 -11 11 -60 7 -39 -4 -69 -2 -72
4 -4 6 -26 8 -50 5 -25 -2 -47 0 -50 5 -4 6 -39 8 -88 5 -49 -3 -67 -2 -46 3
33 7 33 7 7 9 -38 1 -66 -15 -77 -45 -6 -16 -14 -22 -22 -18 -16 10 -98 11
-98 1 0 -5 -5 -5 -10 -2 -6 4 -17 1 -25 -5 -8 -7 -15 -9 -15 -4 0 4 -6 0 -13
-11 -8 -10 -19 -15 -25 -11 -13 8 -62 -13 -62 -27 0 -5 -7 -6 -16 -3 -8 3 -13
2 -10 -3 3 -5 -1 -12 -10 -15 -22 -8 -26 -8 -19 4 3 6 -1 7 -9 4 -9 -3 -16 -9
-16 -13 0 -4 -6 -8 -13 -8 -8 0 -14 6 -14 14 0 7 5 13 10 13 21 0 -3 12 -39
20 -30 7 -42 5 -60 -9 -13 -10 -20 -22 -16 -26 4 -5 2 -5 -5 -2 -6 4 -18 0
-26 -8 -9 -8 -18 -15 -21 -15 -7 0 15 52 27 65 7 7 7 6 3 -2 -12 -21 5 -15 25
9 11 11 19 18 19 13 0 -4 7 -2 15 5 12 10 15 10 15 -1 0 -8 5 -6 13 5 10 13
20 16 35 12 12 -4 20 -11 17 -15 -2 -5 14 -14 36 -20 36 -11 43 -10 60 5 10 9
16 21 13 26 -3 4 0 7 7 6 7 -2 18 8 25 21 13 25 9 51 -8 51 -5 0 -6 -4 -3 -10
3 -5 2 -10 -3 -10 -6 0 -14 17 -19 38 -12 47 -32 45 -84 -9 -30 -31 -45 -39
-73 -39 -28 0 -36 4 -36 18 0 15 -2 15 -11 2 -9 -13 -10 -13 -6 0 2 8 10 15
18 15 17 0 60 41 52 49 -4 3 -2 6 4 6 16 0 7 70 -10 88 -15 14 -17 14 -23 -1z
m758 -212 c248 -18 250 -19 241 -99 -3 -28 -10 -58 -15 -66 -6 -10 -7 5 -4 42
9 92 15 89 -308 109 -182 11 -200 11 -211 -4 -8 -11 -14 -89 -19 -229 -3 -117
-11 -309 -17 -427 -13 -252 -17 -241 95 -241 39 0 76 -4 83 -8 6 -4 -30 -5
-80 -4 -51 2 -98 9 -106 15 -12 10 -13 58 -7 292 12 441 21 601 35 619 17 20
46 20 313 1z m-373 -38 c6 -8 13 -29 16 -48 l6 -34 -21 38 c-11 20 -27 37 -36
37 -12 0 -339 -121 -431 -160 -33 -14 -38 -46 -14 -93 12 -23 54 -127 95 -232
41 -104 96 -246 123 -315 48 -121 71 -191 58 -179 -3 4 -14 28 -24 55 -11 27
-60 150 -111 274 -153 375 -179 449 -170 475 5 14 64 43 221 106 214 87 267
101 288 76z m457 -3 l71 -6 -24 -26 c-18 -20 -21 -28 -11 -34 13 -9 -256 -1
-297 8 -15 4 -20 14 -21 41 l-1 36 106 -7 c58 -3 138 -9 177 -12z m409 -105
c260 -141 275 -149 285 -170 9 -16 2 -35 -35 -107 -64 -120 -88 -139 -30 -24
25 52 45 104 43 115 -2 14 -19 30 -48 46 -25 13 -118 64 -208 113 -146 80
-166 88 -183 76 -11 -7 -106 -179 -210 -383 -142 -277 -188 -376 -184 -393 4
-15 2 -21 -5 -17 -5 3 -10 18 -10 32 0 25 362 754 388 779 7 8 21 14 30 14 10
0 85 -37 167 -81z m-887 54 c2 -7 -1 -13 -7 -13 -6 0 -11 5 -11 10 0 6 -7 10
-16 10 -9 0 -14 -7 -12 -17 2 -10 12 -17 22 -16 12 1 15 -2 8 -9 -13 -13 -31
-2 -42 26 l-9 21 0 -22 c-1 -12 4 -25 10 -29 8 -4 1 -13 -17 -22 -35 -18 -276
-114 -278 -110 0 2 -8 17 -18 35 -15 29 -15 32 0 36 10 3 80 30 157 60 138 54
204 66 213 40z m237 -29 c191 -5 275 -14 275 -30 0 -24 31 -29 48 -8 14 18 14
18 8 1 -3 -10 -6 -28 -6 -39 0 -17 -3 -18 -15 -8 -11 9 -22 9 -50 0 -32 -11
-35 -15 -35 -50 0 -21 5 -42 11 -46 8 -4 7 -9 -2 -15 -8 -5 -9 -9 -4 -9 17 0
52 33 66 62 10 19 18 25 28 19 11 -7 2 -33 -42 -125 -31 -64 -62 -116 -69
-116 -9 0 -9 3 0 12 7 7 12 16 12 21 0 5 -9 -2 -20 -16 -11 -14 -44 -35 -73
-46 -28 -11 -45 -20 -36 -20 8 -1 37 10 62 23 54 27 59 19 28 -43 -25 -48 -72
-71 -105 -51 -19 12 -20 12 -6 -4 10 -13 23 -16 47 -13 l33 6 -21 -41 c-16
-30 -25 -39 -40 -35 -21 6 -28 -18 -7 -25 7 -3 9 -12 5 -22 -6 -16 -8 -16 -23
-2 -28 28 -68 19 -113 -24 -23 -23 -46 -38 -51 -35 -14 9 -12 25 3 26 6 0 30
24 53 52 38 49 43 52 82 50 23 -1 42 2 42 6 0 4 -19 8 -42 10 -23 1 -46 7 -50
14 -5 8 -8 4 -8 -10 0 -27 -17 -38 -35 -23 -18 15 -31 -6 -15 -25 10 -12 9
-16 -5 -21 -19 -8 -38 8 -40 33 -2 29 -14 43 -32 36 -15 -6 -15 9 -10 163 11
283 19 384 31 377 5 -4 60 -8 121 -9z m760 -126 c81 -46 96 -58 71 -58 -9 0
-14 -4 -11 -10 3 -5 -1 -10 -9 -10 -9 0 -16 -5 -16 -11 0 -9 -215 98 -246 122
-8 6 -8 19 0 43 l10 34 66 -36 c36 -19 97 -53 135 -74z m-1165 25 c0 -5 -14
-28 -30 -53 -27 -40 -30 -42 -30 -20 0 20 -2 22 -10 10 -5 -8 -10 -26 -10 -40
0 -19 -2 -22 -10 -10 -12 20 -20 9 -24 -32 -2 -19 -6 -40 -10 -46 -8 -13 3
-42 16 -42 5 0 6 -5 3 -10 -4 -6 -10 -8 -14 -6 -4 3 -8 0 -8 -7 0 -7 -3 -22
-7 -35 -11 -33 19 -40 51 -11 l26 24 -7 -27 c-5 -21 -2 -30 13 -38 23 -12 31
-3 40 44 5 24 16 36 48 51 37 18 40 22 25 32 -16 10 -16 12 2 19 22 9 50 -6
54 -30 2 -10 -15 -39 -37 -66 -23 -27 -41 -51 -41 -54 0 -2 12 -6 28 -8 l27
-3 -33 -18 c-18 -10 -37 -15 -42 -12 -6 3 -10 -4 -10 -17 0 -17 3 -19 9 -9 5
8 16 11 30 6 21 -6 22 -8 5 -26 -9 -10 -25 -21 -35 -24 -13 -4 -19 -15 -18
-33 2 -25 2 -25 6 -4 3 18 10 23 24 19 11 -3 19 0 19 6 0 7 4 6 9 -2 13 -21
-27 -79 -41 -59 -7 9 -8 7 -3 -7 17 -49 17 -55 -1 -55 -26 0 -64 40 -64 67 0
13 7 35 16 49 19 28 12 43 -11 24 -12 -10 -15 -10 -15 3 0 8 10 22 23 31 22
16 22 16 0 6 -30 -14 -36 -13 -29 8 7 16 6 16 -9 1 -10 -9 -20 -32 -25 -50
l-7 -34 -18 40 c-10 22 -42 103 -71 179 l-52 139 24 19 c13 11 24 25 24 31 0
7 21 20 48 30 26 11 67 27 92 38 50 20 60 22 60 12z m1007 -58 c30 -1 64 -16
58 -26 -4 -5 6 -9 20 -9 20 0 26 -4 23 -17 -2 -9 7 -27 20 -40 l23 -23 -24
-37 c-21 -33 -30 -38 -66 -41 -29 -2 -41 0 -36 7 3 6 18 11 33 11 15 0 34 5
42 11 12 8 10 9 -7 4 -29 -8 -30 10 -3 27 11 7 20 20 20 28 0 12 -2 13 -9 1
-5 -7 -13 -11 -19 -7 -5 3 -13 -5 -16 -19 -4 -14 -12 -25 -19 -25 -6 0 -24 -7
-39 -14 -16 -8 -30 -11 -33 -6 -9 15 14 50 38 60 l22 9 -22 0 c-12 1 -25 -3
-28 -9 -3 -5 -10 -10 -16 -10 -15 0 -10 44 8 70 13 19 14 22 2 13 -12 -10 -18
-10 -27 -1 -18 18 -15 38 6 38 15 1 15 2 -2 11 -14 9 -15 13 -5 19 8 6 17 2
25 -8 7 -9 21 -17 31 -17z m-70 -32 c15 -32 6 -84 -13 -76 -8 3 -15 19 -15 37
-1 24 -3 26 -6 8 -3 -18 -9 -21 -24 -17 -12 4 -4 -8 21 -32 36 -33 41 -43 38
-73 l-4 -35 -13 28 c-15 29 -38 38 -26 10 4 -10 9 -24 12 -31 3 -8 -6 -6 -26
5 -18 10 -34 29 -37 43 -11 48 -29 80 -41 75 -16 -6 -16 -5 3 34 14 27 41 51
58 51 3 0 6 -8 7 -17 1 -18 2 -16 15 25 5 18 36 -3 51 -35z m-161 -51 c-13
-26 -13 -28 9 -38 20 -10 22 -9 18 5 -4 11 -3 13 4 6 6 -5 13 -25 16 -42 5
-25 3 -33 -8 -33 -8 0 -19 8 -24 18 -6 9 -11 12 -11 6 0 -17 32 -42 63 -50 68
-16 53 -91 -33 -164 -44 -37 -47 -38 -95 -29 -27 5 -63 14 -81 21 l-33 11 25
49 c21 42 27 47 44 38 26 -14 33 -13 27 5 -4 8 -2 17 3 20 15 9 12 33 -4 37
-12 2 -7 19 21 75 20 39 40 70 44 67 4 -2 9 3 13 11 3 8 8 15 11 15 3 0 -1
-12 -9 -28z m726 -114 c122 -128 195 -212 207 -238 12 -25 -60 48 -197 197
-41 46 -84 85 -95 89 -15 5 -51 -26 -176 -148 -86 -84 -216 -211 -288 -280
-94 -90 -133 -133 -133 -149 0 -17 -3 -20 -11 -12 -20 20 0 48 99 143 53 52
183 179 288 282 138 137 197 188 214 188 16 0 45 -23 92 -72z m-1900 18 c16
-23 15 -24 -91 -136 -106 -113 -107 -114 -127 -94 -10 10 -19 25 -19 31 0 17
193 223 208 223 7 0 20 -11 29 -24z m157 -66 c10 -29 -1 -44 -49 -70 -18 -9
-24 -9 -30 0 -5 7 -15 10 -24 7 -12 -5 -16 0 -16 21 -1 22 -7 16 -35 -38 -19
-36 -34 -59 -35 -52 0 7 -4 10 -10 7 -5 -3 -10 -1 -10 4 0 6 -4 11 -10 11 -5
0 -10 -12 -10 -27 0 -38 -15 -61 -24 -37 -3 9 -9 15 -12 12 -2 -3 0 -18 6 -34
11 -28 12 -29 27 -9 15 19 15 18 9 -15 -11 -67 -11 -75 2 -72 14 2 16 -14 2
-23 -13 -8 -13 -45 -1 -45 5 0 12 14 16 30 4 17 10 30 15 30 8 0 25 -39 23
-51 -1 -3 5 -6 13 -6 12 0 14 8 9 35 -5 25 -2 39 11 53 9 10 14 25 10 35 -3 9
-1 23 5 30 15 19 49 18 49 -1 0 -8 5 -15 11 -15 8 0 8 -5 -1 -15 -8 -9 -8 -15
-2 -15 6 0 9 -16 7 -37 -1 -21 2 -41 7 -44 6 -4 5 -15 -3 -30 -11 -22 -11 -23
5 -10 9 8 19 11 22 8 9 -9 -5 -59 -15 -53 -5 3 -14 -8 -21 -24 -13 -31 -30
-40 -30 -16 0 9 -8 12 -27 8 -18 -4 -22 -7 -12 -10 18 -3 34 -42 18 -42 -5 0
-9 7 -9 16 0 13 -7 15 -32 10 -31 -5 -40 1 -146 101 -110 102 -113 107 -94
122 11 9 23 24 28 33 5 9 72 82 148 163 l139 146 33 -32 c18 -18 37 -44 43
-59z m1775 -37 c98 -106 142 -157 131 -151 -6 4 -22 -2 -35 -12 l-25 -19 -73
77 c-105 110 -108 115 -85 146 10 14 20 26 22 26 2 0 31 -30 65 -67z m-369
-25 c-10 -35 -103 -115 -143 -125 -38 -9 -56 -33 -26 -33 15 0 13 -6 -13 -32
l-32 -31 -25 24 c-35 33 -32 63 12 134 30 47 43 61 66 63 20 3 32 -3 43 -17 8
-12 22 -21 31 -21 13 0 11 4 -7 16 l-24 17 29 13 c16 7 44 13 62 13 30 1 33
-1 27 -21z m219 -117 c4 -5 -4 -7 -16 -4 -22 4 -22 4 -3 -8 11 -7 29 -13 40
-14 12 -1 19 -9 19 -18 -1 -9 2 -15 6 -12 13 8 33 -53 26 -81 -4 -14 -10 -24
-13 -21 -3 3 -16 -7 -30 -24 -45 -53 -133 -32 -133 32 0 37 42 68 65 49 17
-14 20 -36 5 -45 -5 -3 -7 0 -4 8 8 21 -15 32 -32 15 -18 -18 -9 -45 18 -54
22 -7 42 9 52 42 8 28 -28 74 -58 74 -50 0 -106 -81 -89 -127 5 -12 3 -14 -7
-8 -28 17 -2 -63 30 -95 25 -25 28 -31 15 -36 -14 -6 -155 2 -160 9 -10 11
-14 47 -5 52 6 3 8 11 4 16 -3 5 -2 15 3 22 5 7 10 24 11 38 1 14 8 39 17 55
8 16 15 34 15 41 0 28 51 71 93 78 23 4 49 11 57 16 20 11 67 11 74 0z m-2459
-134 c-34 -49 -2 -124 70 -161 33 -17 65 -22 190 -26 155 -6 169 -9 233 -57
72 -54 119 -174 108 -277 -8 -79 -53 -172 -103 -211 l-38 -29 38 42 c37 42 52
77 22 52 -12 -10 -15 -10 -15 4 0 9 7 16 15 16 9 0 12 6 9 15 -9 22 -19 18
-32 -11 -7 -14 -17 -22 -23 -19 -7 5 -6 11 2 21 6 8 7 14 2 14 -6 0 -23 -20
-39 -45 -75 -120 -214 -103 -214 26 0 27 -3 49 -7 49 -14 0 -29 -15 -36 -34
-4 -10 -10 -16 -14 -13 -3 4 1 17 9 30 15 21 14 25 -13 55 -15 17 -31 27 -34
22 -4 -6 -11 -8 -16 -5 -5 4 -9 -28 -9 -77 0 -46 -6 -94 -13 -107 -14 -27 -64
-68 -73 -59 -3 4 7 12 22 20 41 19 54 53 54 139 0 56 -4 80 -15 89 -8 7 -12
16 -9 21 3 5 -3 6 -13 3 -11 -3 -7 3 10 16 26 21 27 24 27 123 0 56 -4 107 -8
113 -4 6 -27 15 -52 19 -33 6 -55 18 -82 45 -35 34 -38 43 -38 91 0 59 22 104
62 125 31 16 42 8 23 -19z m1868 -102 c12 -8 15 -15 8 -20 -6 -3 -43 10 -83
30 -39 19 -75 32 -80 27 -4 -4 8 -14 27 -22 19 -8 35 -17 35 -22 0 -4 3 -7 8
-6 10 3 72 -35 72 -44 0 -13 -8 -10 -126 51 -63 32 -108 61 -101 64 9 3 12 16
9 38 l-5 32 109 -58 c60 -32 117 -63 127 -70z m-291 -12 c8 -10 18 -26 21 -36
4 -10 11 -16 16 -12 15 9 35 -35 22 -48 -8 -8 -11 -5 -11 11 0 12 -4 22 -8 22
-8 0 -32 -43 -32 -55 0 -12 59 -3 70 10 11 13 88 15 584 15 364 0 585 -4 608
-11 23 -6 49 -24 65 -44 16 -19 36 -35 46 -35 43 0 76 77 45 108 -19 19 -48
14 -58 -10 -8 -22 -9 -22 -9 -2 -1 24 17 44 39 44 27 0 54 -38 54 -75 0 -67
-72 -101 -111 -52 -48 60 -13 57 -651 57 -534 0 -586 -1 -613 -17 -25 -15 -34
-15 -61 -5 -25 9 -40 9 -65 0 -27 -10 -39 -9 -68 5 -32 15 -84 17 -498 17
-281 0 -468 4 -477 10 -10 6 154 10 471 10 420 0 488 -2 499 -15 7 -8 26 -15
42 -15 25 0 29 3 23 18 -16 37 -15 58 4 90 24 37 32 39 53 15z m1305 -165 c12
-13 60 -117 107 -233 47 -117 94 -217 106 -227 11 -9 20 -20 20 -24 0 -17 -49
40 -65 76 -10 22 -22 37 -26 34 -5 -3 -6 2 -3 11 5 13 2 15 -20 9 -16 -4 -26
-2 -26 5 0 6 -7 8 -15 5 -8 -4 -15 -15 -15 -26 0 -10 4 -16 10 -13 5 3 7 0 4
-8 -2 -7 0 -25 5 -39 8 -21 6 -29 -11 -45 -21 -18 -21 -18 -7 4 11 19 11 29
-1 65 l-15 43 -75 0 c-54 0 -78 4 -87 15 -9 12 -16 5 -36 -41 -14 -31 -35 -64
-48 -73 -23 -16 -22 -16 35 -16 53 0 57 1 45 17 -13 15 -12 15 9 2 36 -23 26
-29 -48 -29 -71 0 -85 8 -52 32 25 18 34 35 103 209 32 82 59 161 59 176 0 32
-26 63 -54 63 -21 1 -21 1 -2 15 30 22 79 19 103 -7z m-1544 -80 c50 -25 51
-62 3 -112 -44 -47 -55 -46 -49 7 5 39 2 46 -22 65 -85 67 -190 -26 -170 -151
9 -57 50 -124 88 -148 51 -31 100 -25 147 17 34 31 41 34 46 19 5 -12 -5 -28
-32 -53 -33 -32 -34 -32 -9 -4 33 37 29 40 -17 12 -18 -11 -50 -20 -71 -20
-41 0 -117 37 -117 57 0 6 -5 15 -12 19 -6 4 -8 3 -5 -2 3 -6 2 -16 -3 -24
-12 -19 -41 5 -33 27 5 13 2 15 -11 10 -10 -4 -22 -7 -28 -7 -6 0 -3 -12 7
-26 9 -14 15 -28 12 -30 -6 -7 -43 54 -52 86 -4 14 -12 30 -16 36 -15 19 22
122 59 165 73 86 184 108 285 57z m779 1 c45 -23 83 -76 104 -145 14 -48 13
-55 -6 -108 -23 -59 -59 -109 -92 -127 -11 -6 -1 8 21 31 42 43 48 55 33 64
-8 5 -20 -5 -76 -66 -14 -16 -35 -28 -48 -28 -20 1 -18 3 10 15 59 26 77 110
47 213 -30 99 -122 155 -169 103 -48 -53 -23 -216 44 -283 21 -21 33 -38 28
-38 -11 0 -47 35 -71 70 -13 18 -20 21 -29 12 -9 -9 -7 -13 5 -18 9 -3 17 -10
17 -15 0 -16 -19 -10 -40 14 -18 19 -20 19 -14 3 5 -14 4 -17 -4 -12 -21 13
-13 -10 11 -31 44 -41 87 -55 148 -51 65 5 70 1 14 -12 -90 -20 -190 49 -228
158 -16 48 -16 52 3 115 16 53 29 73 66 105 71 64 143 73 226 31z m-1174 -23
c2 -21 1 -45 -3 -54 -5 -13 -11 -10 -31 16 -24 30 -30 32 -85 32 l-59 0 0 -70
0 -70 39 0 c30 0 44 6 56 23 13 19 17 20 25 7 5 -8 8 -21 5 -28 -3 -8 -5 -31
-5 -53 0 -44 -10 -50 -25 -16 -8 17 -20 23 -52 25 l-43 3 -1 -73 c-1 -61 -2
-67 -9 -38 -5 19 -6 38 -3 43 3 5 -4 4 -15 -2 -11 -6 -23 -16 -25 -23 -4 -8
-8 -4 -12 9 -11 34 -25 17 -25 -29 0 -25 -7 -49 -17 -60 -16 -17 -11 -18 136
-18 148 0 152 1 161 23 5 12 9 17 9 10 3 -41 -5 -43 -175 -43 -90 0 -164 4
-164 8 0 5 9 17 20 27 26 23 29 135 5 155 -14 12 -14 15 0 30 10 12 15 38 15
88 0 60 -3 75 -20 89 -11 10 -20 21 -20 25 0 5 71 7 158 6 l157 -3 3 -39z
m642 34 c0 -5 -8 -13 -17 -19 -14 -7 -18 -27 -21 -88 l-4 -78 27 25 c15 14 45
47 68 74 35 41 39 51 29 67 -7 10 -12 21 -12 24 0 3 34 5 75 5 71 0 98 -13 58
-27 -20 -6 -143 -123 -143 -135 0 -15 128 -203 154 -227 14 -14 26 -28 26 -33
0 -4 -28 -7 -62 -6 l-63 2 53 3 53 4 -35 40 c-20 21 -36 44 -36 49 0 6 -7 10
-15 10 -8 0 -15 4 -15 9 0 5 -9 7 -20 4 -11 -3 -17 -10 -13 -16 4 -6 0 -8 -11
-4 -16 6 -16 5 -1 -15 8 -13 15 -27 15 -33 0 -5 -23 25 -50 68 -42 66 -53 77
-65 67 -11 -9 -15 -33 -15 -81 0 -58 3 -70 20 -79 36 -19 11 -30 -71 -30 -79
0 -92 6 -64 30 22 18 21 137 -1 162 -16 16 -16 18 0 24 22 9 24 165 1 184 -29
24 -14 30 70 30 47 0 85 -4 85 -10z m957 -9 c47 -22 63 -45 63 -94 0 -41 -28
-80 -70 -97 l-30 -12 26 -31 c14 -16 45 -71 68 -122 53 -113 101 -165 153
-165 20 0 45 7 55 17 16 14 18 14 18 0 0 -9 -14 -20 -34 -27 -68 -22 -130 24
-190 144 -18 36 -44 76 -57 87 -13 12 -23 25 -22 29 3 11 -31 7 -39 -5 -13
-18 -9 -23 17 -20 16 1 25 -3 25 -11 0 -8 7 -14 16 -14 14 0 14 -3 4 -15 -11
-13 -14 -13 -25 2 -28 38 -24 2 7 -58 40 -80 70 -118 117 -146 20 -13 32 -23
26 -23 -20 0 -73 39 -98 72 -14 18 -51 84 -82 146 -43 84 -61 112 -76 112 -17
0 -19 -8 -19 -69 0 -49 4 -72 15 -81 26 -22 16 -30 -32 -28 -44 1 -45 2 -10 5
41 5 43 9 22 37 -8 11 -15 28 -15 39 0 17 -1 17 -16 3 -23 -23 -31 -20 -39 17
l-8 32 -11 -46 c-6 -25 -17 -53 -24 -62 -12 -14 -9 -16 20 -20 l33 -4 -37 -1
c-43 -2 -57 12 -28 28 17 9 20 21 20 78 0 40 -5 73 -12 80 -9 9 -9 15 0 24 7
7 12 44 12 95 0 72 -3 84 -20 95 -11 7 -20 16 -20 20 0 5 57 8 128 8 103 0
135 -4 169 -19z m-1063 -491 l-1011 -5 -39 -27 c-40 -27 -59 -32 -104 -28 -14
1 -1 6 28 10 30 5 63 17 75 28 12 11 29 22 37 25 8 3 467 5 1020 4 l1005 -2
-1011 -5z m649 -127 l16 -38 -5 34 -6 34 61 -48 c33 -26 61 -49 61 -50 0 -1
-67 -2 -150 -2 -82 0 -147 3 -144 6 18 19 131 100 140 100 6 1 19 -16 27 -36z"/>
<path d="M1198 2664 c-5 -4 -8 -108 -8 -231 0 -209 1 -224 20 -243 52 -52 137
-21 180 65 22 43 25 63 24 142 -1 82 -4 99 -33 157 -22 44 -43 72 -67 86 -37
23 -104 37 -116 24z"/>
<path d="M3357 2524 c-4 -4 -7 -43 -7 -86 l0 -78 29 0 c15 0 40 9 55 21 36 28
38 101 4 123 -29 19 -72 29 -81 20z"/>
</g>
</svg>
